<?xml version="1.0" encoding="UTF-8" standalone="no"?>
<!-- Created with Inkscape (http://www.inkscape.org/) -->

<svg
   width="550"
   height="400"
   viewBox="0 0 145.52083 105.83333"
   version="1.1"
   id="svg5"
   inkscape:version="1.2.2 (b0a8486541, 2022-12-01)"
   sodipodi:docname="resistors.svg"
   xmlns:inkscape="http://www.inkscape.org/namespaces/inkscape"
   xmlns:sodipodi="http://sodipodi.sourceforge.net/DTD/sodipodi-0.dtd"
   xmlns="http://www.w3.org/2000/svg"
   xmlns:svg="http://www.w3.org/2000/svg">
  <sodipodi:namedview
     id="namedview7"
     pagecolor="#ffffff"
     bordercolor="#000000"
     borderopacity="0.25"
     inkscape:showpageshadow="2"
     inkscape:pageopacity="0.0"
     inkscape:pagecheckerboard="0"
     inkscape:deskcolor="#d1d1d1"
     inkscape:document-units="mm"
     showgrid="true"
     inkscape:zoom="2.0233293"
     inkscape:cx="207.82578"
     inkscape:cy="188.05638"
     inkscape:window-width="1920"
     inkscape:window-height="1022"
     inkscape:window-x="1920"
     inkscape:window-y="26"
     inkscape:window-maximized="1"
     inkscape:current-layer="layer1"
     showguides="false">
    <inkscape:grid
       type="xygrid"
       id="grid256"
       spacingx="1.3229166"
       spacingy="1.3229167"
       originx="0"
       originy="0" />
  </sodipodi:namedview>
  <defs
     id="defs2">
    <inkscape:path-effect
       effect="fillet_chamfer"
       id="path-effect3799"
       is_visible="true"
       lpeversion="1"
       nodesatellites_param="F,0,0,1,0,0,0,1 @ F,0,0,1,0,1.3229167,0,1 @ F,0,0,1,0,1.3229174,0,1 @ F,0,0,1,0,0,0,1"
       unit="px"
       method="auto"
       mode="F"
       radius="5"
       chamfer_steps="1"
       flexible="false"
       use_knot_distance="true"
       apply_no_radius="true"
       apply_with_radius="true"
       only_selected="false"
       hide_knots="false" />
    <inkscape:path-effect
       effect="fillet_chamfer"
       id="path-effect3063"
       is_visible="true"
       lpeversion="1"
       nodesatellites_param="F,0,0,1,0,5.2916662,0,1 @ F,0,0,1,0,2.6458333,0,1 @ F,0,0,1,0,2.6458333,0,1 @ F,0,0,1,0,5.2916662,0,1 @ F,0,0,1,0,2.6458333,0,1 @ F,0,0,1,0,2.6458333,0,1 @ F,0,0,1,0,2.6458333,0,1 @ F,0,0,1,0,2.6458333,0,1 @ F,0,0,1,0,5.2916622,0,1 @ F,0,0,1,0,2.6458333,0,1 @ F,0,0,1,0,2.6458333,0,1 @ F,0,0,1,0,5.2916622,0,1 @ F,0,0,1,0,2.6458333,0,1 @ F,0,0,1,0,2.6458333,0,1 @ F,0,0,1,0,2.6458333,0,1 @ F,0,0,1,0,2.6458333,0,1"
       unit="px"
       method="auto"
       mode="F"
       radius="10"
       chamfer_steps="1"
       flexible="false"
       use_knot_distance="true"
       apply_no_radius="true"
       apply_with_radius="true"
       only_selected="false"
       hide_knots="false" />
    <inkscape:path-effect
       effect="fillet_chamfer"
       id="path-effect3061"
       is_visible="true"
       lpeversion="1"
       nodesatellites_param="F,0,0,1,0,0,0,1 @ F,0,0,1,0,0,0,1 @ F,0,0,1,0,0,0,1 @ F,0,0,1,0,0,0,1 @ F,0,0,1,0,0,0,1 @ F,0,0,1,0,0,0,1 @ F,0,0,1,0,0,0,1 @ F,0,0,1,0,0,0,1 @ F,0,0,1,0,0,0,1 @ F,0,0,1,0,0,0,1 @ F,0,0,1,0,0,0,1 @ F,0,0,1,0,0,0,1 @ F,0,0,1,0,0,0,1 @ F,0,0,1,0,0,0,1 @ F,0,0,1,0,0,0,1 @ F,0,0,1,0,0,0,1"
       unit="px"
       method="arc"
       mode="F"
       radius="10"
       chamfer_steps="1"
       flexible="false"
       use_knot_distance="true"
       apply_no_radius="true"
       apply_with_radius="true"
       only_selected="false"
       hide_knots="false" />
    <inkscape:path-effect
       effect="fillet_chamfer"
       id="path-effect3059"
       is_visible="true"
       lpeversion="1"
       nodesatellites_param="F,0,0,1,0,0,0,1 @ F,0,0,1,0,0,0,1 @ F,0,0,1,0,0,0,1 @ F,0,0,1,0,0,0,1 @ F,0,0,1,0,0,0,1 @ F,0,0,1,0,0,0,1 @ F,0,0,1,0,0,0,1 @ F,0,0,1,0,0,0,1 @ F,0,0,1,0,0,0,1 @ F,0,0,1,0,0,0,1 @ F,0,0,1,0,0,0,1 @ F,0,0,1,0,0,0,1 @ F,0,0,1,0,0,0,1 @ F,0,0,1,0,0,0,1 @ F,0,0,1,0,0,0,1 @ F,0,0,1,0,0,0,1"
       unit="px"
       method="bezier"
       mode="F"
       radius="10"
       chamfer_steps="1"
       flexible="false"
       use_knot_distance="true"
       apply_no_radius="true"
       apply_with_radius="true"
       only_selected="false"
       hide_knots="false" />
    <inkscape:path-effect
       effect="fillet_chamfer"
       id="path-effect3063-3"
       is_visible="true"
       lpeversion="1"
       nodesatellites_param="F,0,0,1,0,5.2916662,0,1 @ F,0,0,1,0,1.3229172,0,1 @ F,0,0,1,0,1.3229167,0,1 @ F,0,0,1,0,5.2916662,0,1 @ F,0,0,1,0,2.6458333,0,1 @ F,0,0,1,0,2.6458333,0,1 @ F,0,0,1,0,2.6458333,0,1 @ F,0,0,1,0,2.6458333,0,1 @ F,0,0,1,0,5.2916622,0,1 @ F,0,0,1,0,1.3229167,0,1 @ F,0,0,1,0,1.3229172,0,1 @ F,0,0,1,0,5.2916622,0,1 @ F,0,0,1,0,2.6458333,0,1 @ F,0,0,1,0,2.6458333,0,1 @ F,0,0,1,0,2.6458333,0,1 @ F,0,0,1,0,2.6458333,0,1"
       unit="px"
       method="auto"
       mode="F"
       radius="10"
       chamfer_steps="1"
       flexible="false"
       use_knot_distance="true"
       apply_no_radius="true"
       apply_with_radius="true"
       only_selected="false"
       hide_knots="false" />
    <inkscape:path-effect
       effect="fillet_chamfer"
       id="path-effect3799-2"
       is_visible="true"
       lpeversion="1"
       nodesatellites_param="F,0,0,1,0,0,0,1 @ F,0,0,1,0,1.3229167,0,1 @ F,0,0,1,0,1.3229174,0,1 @ F,0,0,1,0,0,0,1"
       unit="px"
       method="auto"
       mode="F"
       radius="5"
       chamfer_steps="1"
       flexible="false"
       use_knot_distance="true"
       apply_no_radius="true"
       apply_with_radius="true"
       only_selected="false"
       hide_knots="false" />
    <inkscape:path-effect
       effect="fillet_chamfer"
       id="path-effect3799-2-9"
       is_visible="true"
       lpeversion="1"
       nodesatellites_param="F,0,0,1,0,0,0,1 @ F,0,0,1,0,1.3229167,0,1 @ F,0,0,1,0,1.3229174,0,1 @ F,0,0,1,0,0,0,1"
       unit="px"
       method="auto"
       mode="F"
       radius="5"
       chamfer_steps="1"
       flexible="false"
       use_knot_distance="true"
       apply_no_radius="true"
       apply_with_radius="true"
       only_selected="false"
       hide_knots="false" />
    <inkscape:path-effect
       effect="fillet_chamfer"
       id="path-effect3799-2-6"
       is_visible="true"
       lpeversion="1"
       nodesatellites_param="F,0,0,1,0,0,0,1 @ F,0,0,1,0,1.3229167,0,1 @ F,0,0,1,0,1.3229174,0,1 @ F,0,0,1,0,0,0,1"
       unit="px"
       method="auto"
       mode="F"
       radius="5"
       chamfer_steps="1"
       flexible="false"
       use_knot_distance="true"
       apply_no_radius="true"
       apply_with_radius="true"
       only_selected="false"
       hide_knots="false" />
    <inkscape:path-effect
       effect="fillet_chamfer"
       id="path-effect3063-3-6"
       is_visible="true"
       lpeversion="1"
       nodesatellites_param="F,0,0,1,0,5.2916662,0,1 @ F,0,0,1,0,1.3229172,0,1 @ F,0,0,1,0,1.3229167,0,1 @ F,0,0,1,0,5.2916662,0,1 @ F,0,0,1,0,2.6458333,0,1 @ F,0,0,1,0,2.6458333,0,1 @ F,0,0,1,0,2.6458333,0,1 @ F,0,0,1,0,2.6458333,0,1 @ F,0,0,1,0,5.2916622,0,1 @ F,0,0,1,0,1.3229167,0,1 @ F,0,0,1,0,1.3229172,0,1 @ F,0,0,1,0,5.2916622,0,1 @ F,0,0,1,0,2.6458333,0,1 @ F,0,0,1,0,2.6458333,0,1 @ F,0,0,1,0,2.6458333,0,1 @ F,0,0,1,0,2.6458333,0,1"
       unit="px"
       method="auto"
       mode="F"
       radius="10"
       chamfer_steps="1"
       flexible="false"
       use_knot_distance="true"
       apply_no_radius="true"
       apply_with_radius="true"
       only_selected="false"
       hide_knots="false" />
    <inkscape:path-effect
       effect="fillet_chamfer"
       id="path-effect3799-2-2"
       is_visible="true"
       lpeversion="1"
       nodesatellites_param="F,0,0,1,0,0,0,1 @ F,0,0,1,0,1.3229167,0,1 @ F,0,0,1,0,1.3229174,0,1 @ F,0,0,1,0,0,0,1"
       unit="px"
       method="auto"
       mode="F"
       radius="5"
       chamfer_steps="1"
       flexible="false"
       use_knot_distance="true"
       apply_no_radius="true"
       apply_with_radius="true"
       only_selected="false"
       hide_knots="false" />
    <inkscape:path-effect
       effect="fillet_chamfer"
       id="path-effect3799-2-6-6"
       is_visible="true"
       lpeversion="1"
       nodesatellites_param="F,0,0,1,0,0,0,1 @ F,0,0,1,0,1.3229167,0,1 @ F,0,0,1,0,1.3229174,0,1 @ F,0,0,1,0,0,0,1"
       unit="px"
       method="auto"
       mode="F"
       radius="5"
       chamfer_steps="1"
       flexible="false"
       use_knot_distance="true"
       apply_no_radius="true"
       apply_with_radius="true"
       only_selected="false"
       hide_knots="false" />
    <inkscape:path-effect
       effect="fillet_chamfer"
       id="path-effect3063-3-7"
       is_visible="true"
       lpeversion="1"
       nodesatellites_param="F,0,0,1,0,5.2916662,0,1 @ F,0,0,1,0,1.3229172,0,1 @ F,0,0,1,0,1.3229167,0,1 @ F,0,0,1,0,5.2916662,0,1 @ F,0,0,1,0,2.6458333,0,1 @ F,0,0,1,0,2.6458333,0,1 @ F,0,0,1,0,2.6458333,0,1 @ F,0,0,1,0,2.6458333,0,1 @ F,0,0,1,0,5.2916622,0,1 @ F,0,0,1,0,1.3229167,0,1 @ F,0,0,1,0,1.3229172,0,1 @ F,0,0,1,0,5.2916622,0,1 @ F,0,0,1,0,2.6458333,0,1 @ F,0,0,1,0,2.6458333,0,1 @ F,0,0,1,0,2.6458333,0,1 @ F,0,0,1,0,2.6458333,0,1"
       unit="px"
       method="auto"
       mode="F"
       radius="10"
       chamfer_steps="1"
       flexible="false"
       use_knot_distance="true"
       apply_no_radius="true"
       apply_with_radius="true"
       only_selected="false"
       hide_knots="false" />
    <inkscape:path-effect
       effect="fillet_chamfer"
       id="path-effect3063-3-7-6"
       is_visible="true"
       lpeversion="1"
       nodesatellites_param="F,0,0,1,0,5.2916662,0,1 @ F,0,0,1,0,1.3229172,0,1 @ F,0,0,1,0,1.3229167,0,1 @ F,0,0,1,0,5.2916662,0,1 @ F,0,0,1,0,2.6458333,0,1 @ F,0,0,1,0,2.6458333,0,1 @ F,0,0,1,0,2.6458333,0,1 @ F,0,0,1,0,2.6458333,0,1 @ F,0,0,1,0,5.2916622,0,1 @ F,0,0,1,0,1.3229167,0,1 @ F,0,0,1,0,1.3229172,0,1 @ F,0,0,1,0,5.2916622,0,1 @ F,0,0,1,0,2.6458333,0,1 @ F,0,0,1,0,2.6458333,0,1 @ F,0,0,1,0,2.6458333,0,1 @ F,0,0,1,0,2.6458333,0,1"
       unit="px"
       method="auto"
       mode="F"
       radius="10"
       chamfer_steps="1"
       flexible="false"
       use_knot_distance="true"
       apply_no_radius="true"
       apply_with_radius="true"
       only_selected="false"
       hide_knots="false" />
    <inkscape:path-effect
       effect="fillet_chamfer"
       id="path-effect3063-3-6-9"
       is_visible="true"
       lpeversion="1"
       nodesatellites_param="F,0,0,1,0,5.2916662,0,1 @ F,0,0,1,0,1.3229172,0,1 @ F,0,0,1,0,1.3229167,0,1 @ F,0,0,1,0,5.2916662,0,1 @ F,0,0,1,0,2.6458333,0,1 @ F,0,0,1,0,2.6458333,0,1 @ F,0,0,1,0,2.6458333,0,1 @ F,0,0,1,0,2.6458333,0,1 @ F,0,0,1,0,5.2916622,0,1 @ F,0,0,1,0,1.3229167,0,1 @ F,0,0,1,0,1.3229172,0,1 @ F,0,0,1,0,5.2916622,0,1 @ F,0,0,1,0,2.6458333,0,1 @ F,0,0,1,0,2.6458333,0,1 @ F,0,0,1,0,2.6458333,0,1 @ F,0,0,1,0,2.6458333,0,1"
       unit="px"
       method="auto"
       mode="F"
       radius="10"
       chamfer_steps="1"
       flexible="false"
       use_knot_distance="true"
       apply_no_radius="true"
       apply_with_radius="true"
       only_selected="false"
       hide_knots="false" />
    <inkscape:path-effect
       effect="fillet_chamfer"
       id="path-effect3063-3-6-9-1"
       is_visible="true"
       lpeversion="1"
       nodesatellites_param="F,0,0,1,0,5.2916662,0,1 @ F,0,0,1,0,1.3229172,0,1 @ F,0,0,1,0,1.3229167,0,1 @ F,0,0,1,0,5.2916662,0,1 @ F,0,0,1,0,2.6458333,0,1 @ F,0,0,1,0,2.6458333,0,1 @ F,0,0,1,0,2.6458333,0,1 @ F,0,0,1,0,2.6458333,0,1 @ F,0,0,1,0,5.2916622,0,1 @ F,0,0,1,0,1.3229167,0,1 @ F,0,0,1,0,1.3229172,0,1 @ F,0,0,1,0,5.2916622,0,1 @ F,0,0,1,0,2.6458333,0,1 @ F,0,0,1,0,2.6458333,0,1 @ F,0,0,1,0,2.6458333,0,1 @ F,0,0,1,0,2.6458333,0,1"
       unit="px"
       method="auto"
       mode="F"
       radius="10"
       chamfer_steps="1"
       flexible="false"
       use_knot_distance="true"
       apply_no_radius="true"
       apply_with_radius="true"
       only_selected="false"
       hide_knots="false" />
    <inkscape:path-effect
       effect="fillet_chamfer"
       id="path-effect3063-3-6-9-1-4"
       is_visible="true"
       lpeversion="1"
       nodesatellites_param="F,0,0,1,0,5.2916662,0,1 @ F,0,0,1,0,1.3229172,0,1 @ F,0,0,1,0,1.3229167,0,1 @ F,0,0,1,0,5.2916662,0,1 @ F,0,0,1,0,2.6458333,0,1 @ F,0,0,1,0,2.6458333,0,1 @ F,0,0,1,0,2.6458333,0,1 @ F,0,0,1,0,2.6458333,0,1 @ F,0,0,1,0,5.2916622,0,1 @ F,0,0,1,0,1.3229167,0,1 @ F,0,0,1,0,1.3229172,0,1 @ F,0,0,1,0,5.2916622,0,1 @ F,0,0,1,0,2.6458333,0,1 @ F,0,0,1,0,2.6458333,0,1 @ F,0,0,1,0,2.6458333,0,1 @ F,0,0,1,0,2.6458333,0,1"
       unit="px"
       method="auto"
       mode="F"
       radius="10"
       chamfer_steps="1"
       flexible="false"
       use_knot_distance="true"
       apply_no_radius="true"
       apply_with_radius="true"
       only_selected="false"
       hide_knots="false" />
    <inkscape:path-effect
       effect="fillet_chamfer"
       id="path-effect3063-3-6-4"
       is_visible="true"
       lpeversion="1"
       nodesatellites_param="F,0,0,1,0,5.2916662,0,1 @ F,0,0,1,0,1.3229172,0,1 @ F,0,0,1,0,1.3229167,0,1 @ F,0,0,1,0,5.2916662,0,1 @ F,0,0,1,0,2.6458333,0,1 @ F,0,0,1,0,2.6458333,0,1 @ F,0,0,1,0,2.6458333,0,1 @ F,0,0,1,0,2.6458333,0,1 @ F,0,0,1,0,5.2916622,0,1 @ F,0,0,1,0,1.3229167,0,1 @ F,0,0,1,0,1.3229172,0,1 @ F,0,0,1,0,5.2916622,0,1 @ F,0,0,1,0,2.6458333,0,1 @ F,0,0,1,0,2.6458333,0,1 @ F,0,0,1,0,2.6458333,0,1 @ F,0,0,1,0,2.6458333,0,1"
       unit="px"
       method="auto"
       mode="F"
       radius="10"
       chamfer_steps="1"
       flexible="false"
       use_knot_distance="true"
       apply_no_radius="true"
       apply_with_radius="true"
       only_selected="false"
       hide_knots="false" />
    <inkscape:path-effect
       effect="fillet_chamfer"
       id="path-effect3063-3-6-4-0"
       is_visible="true"
       lpeversion="1"
       nodesatellites_param="F,0,0,1,0,5.2916662,0,1 @ F,0,0,1,0,1.3229172,0,1 @ F,0,0,1,0,1.3229167,0,1 @ F,0,0,1,0,5.2916662,0,1 @ F,0,0,1,0,2.6458333,0,1 @ F,0,0,1,0,2.6458333,0,1 @ F,0,0,1,0,2.6458333,0,1 @ F,0,0,1,0,2.6458333,0,1 @ F,0,0,1,0,5.2916622,0,1 @ F,0,0,1,0,1.3229167,0,1 @ F,0,0,1,0,1.3229172,0,1 @ F,0,0,1,0,5.2916622,0,1 @ F,0,0,1,0,2.6458333,0,1 @ F,0,0,1,0,2.6458333,0,1 @ F,0,0,1,0,2.6458333,0,1 @ F,0,0,1,0,2.6458333,0,1"
       unit="px"
       method="auto"
       mode="F"
       radius="10"
       chamfer_steps="1"
       flexible="false"
       use_knot_distance="true"
       apply_no_radius="true"
       apply_with_radius="true"
       only_selected="false"
       hide_knots="false" />
    <inkscape:path-effect
       effect="fillet_chamfer"
       id="path-effect3063-3-6-4-6"
       is_visible="true"
       lpeversion="1"
       nodesatellites_param="F,0,0,1,0,5.2916662,0,1 @ F,0,0,1,0,1.3229172,0,1 @ F,0,0,1,0,1.3229167,0,1 @ F,0,0,1,0,5.2916662,0,1 @ F,0,0,1,0,2.6458333,0,1 @ F,0,0,1,0,2.6458333,0,1 @ F,0,0,1,0,2.6458333,0,1 @ F,0,0,1,0,2.6458333,0,1 @ F,0,0,1,0,5.2916622,0,1 @ F,0,0,1,0,1.3229167,0,1 @ F,0,0,1,0,1.3229172,0,1 @ F,0,0,1,0,5.2916622,0,1 @ F,0,0,1,0,2.6458333,0,1 @ F,0,0,1,0,2.6458333,0,1 @ F,0,0,1,0,2.6458333,0,1 @ F,0,0,1,0,2.6458333,0,1"
       unit="px"
       method="auto"
       mode="F"
       radius="10"
       chamfer_steps="1"
       flexible="false"
       use_knot_distance="true"
       apply_no_radius="true"
       apply_with_radius="true"
       only_selected="false"
       hide_knots="false" />
  </defs>
  <g
     inkscape:label="Layer 1"
     inkscape:groupmode="layer"
     id="layer1">
    <path
       id="rect4068"
       style="opacity:1;fill:#cda37b;fill-opacity:1;fill-rule:evenodd;stroke:none;stroke-width:1.548;stroke-dasharray:none;stroke-opacity:1"
       d="M 35.71875 6.6145833 A 7.1121616 7.1121616 0 0 0 28.906763 11.683008 L 26.838672 18.576644 A 9.0136109 9.0136109 0 0 0 26.458333 21.166667 L 26.458333 25.135417 A 9.0136078 9.0136078 0 0 0 26.838672 27.725439 L 28.906763 34.619076 A 7.1121615 7.1121615 0 0 0 35.71875 39.6875 L 39.6875 39.6875 L 39.6875 6.6145833 L 35.71875 6.6145833 z M 46.302083 6.6145833 L 46.302083 39.6875 A 6.3876055 6.3876055 0 0 0 50.818604 37.816813 L 51.04598 37.589437 A 6.3876055 6.3876055 0 0 1 55.5625 35.71875 L 52.916667 35.71875 L 52.916667 10.583333 L 55.5625 10.583333 A 6.3876049 6.3876049 0 0 1 51.04598 8.7126465 L 50.818604 8.4852702 A 6.3876049 6.3876049 0 0 0 46.302083 6.6145833 z M 99.21875 6.6145833 A 6.3876072 6.3876072 0 0 0 94.70223 8.4852702 L 94.474854 8.7126465 A 6.3876072 6.3876072 0 0 1 89.958333 10.583333 L 72.760417 10.583333 L 72.760417 35.71875 L 89.958333 35.71875 A 6.3876078 6.3876078 0 0 1 94.474854 37.589437 L 94.70223 37.816813 A 6.3876078 6.3876078 0 0 0 99.21875 39.6875 L 99.21875 6.6145833 z M 105.83333 6.6145833 L 105.83333 39.6875 L 109.80208 39.6875 C 112.72458 39.6875 115.77429 37.418325 116.61407 34.619076 C 117.30342 32.321228 117.99281 30.023287 118.68216 27.725439 C 118.89211 27.025627 119.0625 25.866043 119.0625 25.135417 L 119.0625 21.166667 C 119.0625 20.43604 118.89211 19.276457 118.68216 18.576644 C 117.99281 16.278797 117.30342 13.980855 116.61407 11.683008 C 115.77429 8.8837584 112.72458 6.6145833 109.80208 6.6145833 L 105.83333 6.6145833 z M 59.53125 10.583333 L 59.53125 35.71875 L 66.145833 35.71875 L 66.145833 10.583333 L 59.53125 10.583333 z " />
    <path
       id="rect4068-2"
       style="fill:#49ace7;fill-opacity:1;fill-rule:evenodd;stroke:none;stroke-width:1.548;stroke-dasharray:none;stroke-opacity:1"
       d="M 35.71875 59.53125 A 7.1121617 7.1121617 0 0 0 28.906763 64.599674 L 26.838672 71.493311 A 9.0136106 9.0136106 0 0 0 26.458333 74.083333 L 26.458333 78.052083 A 9.0136078 9.0136078 0 0 0 26.838672 80.642106 L 28.906763 87.535742 A 7.1121615 7.1121615 0 0 0 35.71875 92.604167 L 39.6875 92.604167 L 39.6875 59.53125 L 35.71875 59.53125 z M 46.302083 59.53125 L 46.302083 92.604167 A 6.3876055 6.3876055 0 0 0 50.818604 90.73348 L 51.04598 90.506104 A 6.3876055 6.3876055 0 0 1 55.5625 88.635417 L 52.916667 88.635417 L 52.916667 63.5 L 55.5625 63.5 A 6.3876055 6.3876055 0 0 1 51.04598 61.629313 L 50.818604 61.401937 A 6.3876055 6.3876055 0 0 0 46.302083 59.53125 z M 99.21875 59.53125 C 97.757498 59.53125 95.735492 60.368676 94.70223 61.401937 L 94.474854 61.629313 C 93.441592 62.662574 91.419585 63.5 89.958333 63.5 L 85.989583 63.5 L 85.989583 88.635417 L 89.958333 88.635417 C 91.419585 88.635417 93.441593 89.472843 94.474854 90.506104 L 94.70223 90.73348 C 95.735492 91.766741 97.757498 92.604167 99.21875 92.604167 L 99.21875 59.53125 z M 105.83333 59.53125 L 105.83333 92.604167 L 109.80208 92.604167 C 112.72458 92.604167 115.77429 90.334991 116.61407 87.535742 C 117.30342 85.237894 117.99281 82.939954 118.68216 80.642106 C 118.89211 79.942294 119.0625 78.78271 119.0625 78.052083 L 119.0625 74.083333 C 119.0625 73.352707 118.89211 72.193124 118.68216 71.493311 C 117.99281 69.195464 117.30342 66.897521 116.61407 64.599674 C 115.77429 61.800425 112.72458 59.53125 109.80208 59.53125 L 105.83333 59.53125 z M 59.53125 63.5 L 59.53125 88.635417 L 66.145833 88.635417 L 66.145833 63.5 L 59.53125 63.5 z M 72.760417 63.5 L 72.760417 88.635417 L 79.375 88.635417 L 79.375 63.5 L 72.760417 63.5 z " />
    <path
       id="rect3671-9"
       style="fill-rule:evenodd;stroke-width:1.548"
       d="M 26.458333,24.473959 H 7.9374997 A 1.3229167,1.3229167 45 0 1 6.614583,23.151042 1.3229173,1.3229173 135 0 1 7.9375004,21.828125 l 18.5208326,0 c -10e-6,1.026526 0,1.776803 0,2.645834 z"
       inkscape:path-effect="#path-effect3799-2"
       inkscape:original-d="M 26.458333,24.473959 H 6.614583 v -2.645834 h 19.84375 c -10e-6,1.026526 0,1.776803 0,2.645834 z"
       sodipodi:nodetypes="ccccc"
       inkscape:transform-center-x="0.12762966"
       inkscape:transform-center-y="-0.033046751" />
    <path
       id="rect3671-9-0"
       style="fill-rule:evenodd;stroke-width:1.548"
       d="m 119.06249,24.473959 h 18.52083 a 1.3229167,1.3229167 135 0 0 1.32292,-1.322917 1.3229173,1.3229173 44.999998 0 0 -1.32292,-1.322917 l -18.52083,0 c 1e-5,1.026526 0,1.776803 0,2.645834 z"
       inkscape:path-effect="#path-effect3799-2-6"
       inkscape:original-d="m 119.06249,24.473959 h 19.84375 v -2.645834 h -19.84375 c 1e-5,1.026526 0,1.776803 0,2.645834 z"
       sodipodi:nodetypes="ccccc"
       inkscape:transform-center-x="-0.12762935"
       inkscape:transform-center-y="-0.033046751" />
    <path
       id="path579-5-2-5-1"
       style="opacity:0.45;fill:#ffffff;fill-opacity:1;fill-rule:evenodd;stroke:none;stroke-width:1.17552;stroke-dasharray:none;stroke-opacity:1"
       d="m 35.718746,63.012695 c -3.185513,7.7e-5 -6.03955,1.968719 -7.171139,4.94647 l -1.619539,4.26072 c -0.31062,0.817598 -0.469794,1.684915 -0.469739,2.55953 v 0.62684 c 0,-0.73063 0.26495,-1.85282 0.591695,-2.50631 0.336874,-0.67375 0.673918,-1.34732 1.010791,-2.02107 1.306983,-2.61396 4.735428,-4.73304 7.657931,-4.73304 h 10.583333 c 1.461252,0 3.40711,0.45676 4.345988,1.02009 1.253013,0.75181 3.453177,1.36116 4.914429,1.36116 h 34.395833 c 1.461252,0 3.407105,-0.45676 4.345988,-1.02009 1.253015,-0.75181 3.453177,-1.36116 4.914429,-1.36116 h 10.583334 c 2.9225,0 6.35096,2.11908 7.65793,4.73304 0.33687,0.67375 0.67393,1.34732 1.01079,2.02107 0.32675,0.65349 0.5917,1.77568 0.5917,2.50631 v -0.62684 c 0,-0.73063 -0.21021,-1.87655 -0.46974,-2.55953 -0.53972,-1.42029 -1.07983,-2.84044 -1.61954,-4.26072 -1.03812,-2.73191 -4.24864,-4.94647 -7.17114,-4.94647 H 99.218746 c -1.461252,0 -3.575796,0.73372 -4.722709,1.63917 -1.044985,0.82498 -3.076456,1.49397 -4.537708,1.49397 H 55.562496 c -1.461252,0 -3.575797,-0.73423 -4.722709,-1.63969 -1.044981,-0.82498 -3.076456,-1.49345 -4.537708,-1.49345 z"
       sodipodi:nodetypes="cccccsssssssssssscssssssssssc" />
    <path
       id="path579-5-2-5-1-0"
       style="opacity:0.45;fill:#fffcfc;fill-opacity:1;fill-rule:evenodd;stroke:none;stroke-width:1.17552;stroke-dasharray:none;stroke-opacity:1"
       d="m 35.718747,10.096027 c -3.185513,7.6e-5 -6.039551,1.968719 -7.17114,4.94647 l -1.619538,4.26072 c -0.31062,0.817598 -0.469795,1.684915 -0.46974,2.55953 v 0.62684 c 0,-0.73063 0.26495,-1.85282 0.591696,-2.50631 0.336874,-0.67375 0.673918,-1.34732 1.010791,-2.02107 1.306983,-2.61396 4.735428,-4.73304 7.657931,-4.73304 H 46.30208 c 1.461252,0 3.40711,0.45676 4.345988,1.02009 1.253013,0.75181 3.453177,1.36116 4.914429,1.36116 h 34.395832 c 1.461253,0 3.407106,-0.45676 4.345989,-1.02009 1.253015,-0.75181 3.453177,-1.36116 4.914429,-1.36116 h 10.583333 c 2.9225,0 6.35096,2.11908 7.65793,4.73304 0.33687,0.67375 0.67393,1.34732 1.01079,2.02107 0.32675,0.65349 0.5917,1.77568 0.5917,2.50631 v -0.62684 c 0,-0.73063 -0.21021,-1.87655 -0.46974,-2.55953 -0.53972,-1.42029 -1.07983,-2.84044 -1.61954,-4.26072 -1.03812,-2.73191 -4.24864,-4.94647 -7.17114,-4.94647 H 99.218746 c -1.461252,0 -3.575796,0.73372 -4.722709,1.63917 -1.044985,0.82498 -3.076455,1.49397 -4.537708,1.49397 H 55.562497 c -1.461252,0 -3.575797,-0.73423 -4.722709,-1.63969 -1.044981,-0.82498 -3.076456,-1.49345 -4.537709,-1.49345 z"
       sodipodi:nodetypes="cccccscsssssssssscssssssssssc" />
    <path
       id="path579-5-2-3-9"
       style="opacity:0.556;fill:#000000;fill-opacity:1;fill-rule:evenodd;stroke:none;stroke-width:1.32292;stroke-dasharray:none;stroke-opacity:1"
       d="m 26.45833,77.356009 v 0.69608 c 0,0.73063 0.170394,1.89021 0.380338,2.59002 l 2.068091,6.89364 c 0.839775,2.79925 3.889484,5.06842 6.811987,5.06842 H 46.30208 c 1.461251,0 3.483259,-0.83743 4.51652,-1.87069 0.07566,-0.0757 0.151719,-0.15171 0.227376,-0.22737 1.033261,-1.03326 3.055269,-1.87069 4.51652,-1.87069 H 89.95833 c 1.461251,0 3.483258,0.83743 4.51652,1.87069 0.07566,0.0757 0.151717,0.15171 0.227376,0.22737 1.033262,1.03326 3.055269,1.87069 4.51652,1.87069 h 10.583334 c 2.9225,0 5.97221,-2.26918 6.81199,-5.06842 0.68935,-2.29785 1.37874,-4.59579 2.06808,-6.89364 0.20995,-0.69981 0.38034,-1.85939 0.38034,-2.59002 v -0.69608 c 0,0.73062 -0.21021,1.87655 -0.46974,2.55953 -0.53971,1.4203 -1.07983,2.84043 -1.61953,4.26072 -1.03813,2.73191 -4.24864,4.94647 -7.17114,4.94647 H 99.218746 c -1.461251,0 -3.492721,-0.66846 -4.537707,-1.49345 -1.146912,-0.90545 -3.261458,-1.63969 -4.722709,-1.63969 H 55.562496 c -1.461251,0 -3.492725,0.66897 -4.537707,1.49396 -1.146912,0.90546 -3.261458,1.63918 -4.722709,1.63918 H 35.718746 c -2.922503,0 -6.133014,-2.21456 -7.171138,-4.94647 -0.539712,-1.4203 -1.079828,-2.84042 -1.61954,-4.26072 -0.259531,-0.68298 -0.469738,-1.82891 -0.469738,-2.55953 z"
       sodipodi:nodetypes="csssssssssssssssscssssssssssssc" />
    <path
       id="path579-5-2-3-9-8"
       style="opacity:0.556;fill:#000000;fill-opacity:1;fill-rule:evenodd;stroke:none;stroke-width:1.32292;stroke-dasharray:none;stroke-opacity:1"
       d="m 26.45833,24.439341 v 0.69608 c 0,0.73063 0.170394,1.89021 0.380338,2.59002 l 2.068091,6.89364 c 0.839775,2.79925 3.889484,5.06842 6.811987,5.06842 H 46.30208 c 1.461251,0 3.483259,-0.83743 4.51652,-1.87069 0.07566,-0.0757 0.151719,-0.15171 0.227376,-0.22737 1.033261,-1.03326 3.055269,-1.87069 4.51652,-1.87069 H 89.95833 c 1.461251,0 3.483258,0.83743 4.51652,1.87069 0.07566,0.0757 0.151717,0.15171 0.227376,0.22737 1.033262,1.03326 3.055269,1.87069 4.51652,1.87069 h 10.583334 c 2.9225,0 5.97221,-2.26918 6.81199,-5.06842 0.68935,-2.29785 1.37874,-4.59579 2.06808,-6.89364 0.20995,-0.69981 0.38034,-1.85939 0.38034,-2.59002 v -0.69608 c 0,0.73062 -0.21021,1.87655 -0.46974,2.55953 -0.53971,1.4203 -1.07983,2.84043 -1.61953,4.26072 -1.03813,2.73191 -4.24864,4.94647 -7.17114,4.94647 H 99.218746 c -1.461251,0 -3.492721,-0.66846 -4.537707,-1.49345 -1.146912,-0.90545 -3.261458,-1.63969 -4.722709,-1.63969 H 55.562496 c -1.461251,0 -3.492725,0.66897 -4.537707,1.49396 -1.146912,0.90546 -3.261458,1.63918 -4.722709,1.63918 H 35.718746 c -2.922503,0 -6.133014,-2.21456 -7.171138,-4.94647 -0.539712,-1.4203 -1.079828,-2.84042 -1.61954,-4.26072 -0.259531,-0.68298 -0.469738,-1.82891 -0.469738,-2.55953 z"
       sodipodi:nodetypes="csssssssssssssssscssssssssssssc" />
    <path
       id="rect3671-9-3"
       style="fill-rule:evenodd;stroke-width:1.548"
       d="M 26.458333,77.390627 H 7.9374992 A 1.3229167,1.3229167 45 0 1 6.6145825,76.06771 1.3229173,1.3229173 135 0 1 7.9374999,74.744793 H 26.458333 c -10e-6,1.026527 0,1.776803 0,2.645834 z"
       inkscape:path-effect="#path-effect3799-2-2"
       inkscape:original-d="M 26.458333,77.390627 H 6.6145825 V 74.744793 H 26.458333 c -10e-6,1.026527 0,1.776803 0,2.645834 z"
       sodipodi:nodetypes="ccccc"
       inkscape:transform-center-x="0.12762966"
       inkscape:transform-center-y="-0.033046751" />
    <path
       id="rect3671-9-0-7"
       style="fill-rule:evenodd;stroke-width:1.548"
       d="m 119.06249,77.390627 h 18.52083 a 1.3229167,1.3229167 135 0 0 1.32292,-1.322917 1.3229173,1.3229173 44.999998 0 0 -1.32292,-1.322917 h -18.52083 c 1e-5,1.026527 0,1.776803 0,2.645834 z"
       inkscape:path-effect="#path-effect3799-2-6-6"
       inkscape:original-d="m 119.06249,77.390627 h 19.84375 v -2.645834 h -19.84375 c 1e-5,1.026527 0,1.776803 0,2.645834 z"
       sodipodi:nodetypes="ccccc"
       inkscape:transform-center-x="-0.12762935"
       inkscape:transform-center-y="-0.033046751" />
    <path
       id="path579-5"
       style="fill:none;fill-opacity:1;fill-rule:evenodd;stroke:#000000;stroke-width:1.32291667;stroke-dasharray:none;stroke-opacity:1"
       d="m 28.906533,11.68308 -2.068064,6.893545 a 9.0136112,9.0136112 98.349622 0 0 -0.380137,2.590042 v 3.96875 a 9.0136078,9.0136078 81.650378 0 0 0.380137,2.590041 l 2.068064,6.893546 a 7.1121615,7.1121615 36.650378 0 0 6.812215,5.068497 h 10.583334 a 6.3876055,6.3876055 157.5 0 0 4.516719,-1.870887 l 0.226977,-0.226976 a 6.3876055,6.3876055 157.5 0 1 4.516719,-1.870887 h 34.395832 a 6.3876078,6.3876078 22.499996 0 1 4.51672,1.870886 l 0.226977,0.226978 a 6.3876078,6.3876078 22.499996 0 0 4.51672,1.870886 h 10.583334 c 2.9225,0 5.97243,-2.269241 6.81221,-5.068493 0.68935,-2.29785 1.37871,-4.5957 2.06806,-6.89355 0.20995,-0.699813 0.38014,-1.859414 0.38014,-2.590041 v -3.96875 c 0,-0.730627 -0.17019,-1.890228 -0.38014,-2.590042 -0.68935,-2.297849 -1.37871,-4.595699 -2.06806,-6.893549 -0.83978,-2.7992516 -3.88971,-5.0684929 -6.81221,-5.0684929 H 99.218746 a 6.3876068,6.3876068 157.5 0 0 -4.51672,1.8708866 l -0.226977,0.2269777 a 6.3876068,6.3876068 157.5 0 1 -4.51672,1.8708866 H 55.562497 A 6.3876045,6.3876045 22.500007 0 1 51.045778,8.7124469 L 50.818801,8.4854702 A 6.3876045,6.3876045 22.500007 0 0 46.302082,6.6145831 l -10.583334,0 A 7.1121615,7.1121615 143.34962 0 0 28.906533,11.68308 Z"
       sodipodi:nodetypes="ccccccccccccccccc"
       inkscape:original-d="m 30.427082,6.6145831 c -1.322917,4.4097229 -2.645833,8.8194449 -3.96875,13.2291669 0,2.204861 0,4.409723 0,6.614584 1.322917,4.409722 2.645833,8.819445 3.96875,13.229167 6.173611,0 12.347222,0 18.520833,0 1.322916,-1.322917 2.645833,-2.645833 3.968749,-3.96875 13.229166,0 26.458332,0 39.687498,0 1.322917,1.322917 2.645834,2.645833 3.968751,3.96875 6.173607,0 12.347217,0 18.520827,0 1.32292,-4.409722 2.64583,-8.819445 3.96875,-13.229167 0,-2.204861 0,-4.409723 0,-6.614584 -1.32292,-4.409722 -2.64583,-8.819444 -3.96875,-13.2291669 -6.17361,0 -12.34722,0 -18.520827,0 -1.322917,1.3229168 -2.645834,2.6458337 -3.968751,3.9687509 -13.229166,0 -26.458332,0 -39.687498,0 -1.322916,-1.3229172 -2.645833,-2.6458341 -3.968749,-3.9687509 -6.173611,0 -12.347222,0 -18.520833,0 z"
       inkscape:path-effect="#path-effect3063-3" />
    <path
       id="path579-5-2"
       style="fill:none;fill-opacity:1;fill-rule:evenodd;stroke:#000000;stroke-width:1.32291667;stroke-dasharray:none;stroke-opacity:1"
       d="m 28.906533,64.599749 -2.068064,6.893544 a 9.0136106,9.0136106 98.349623 0 0 -0.380137,2.590042 v 3.96875 a 9.0136078,9.0136078 81.650378 0 0 0.380137,2.590041 l 2.068064,6.893546 a 7.1121615,7.1121615 36.650378 0 0 6.812215,5.068497 l 10.583339,0 c 1.461253,0 3.483456,-0.837626 4.516717,-1.870889 0.07566,-0.07566 0.151315,-0.151314 0.226972,-0.226972 1.033262,-1.033262 3.055464,-1.870889 4.516717,-1.870889 l 34.395834,0 c 1.461253,0 3.483459,0.837623 4.516721,1.870885 0.07566,0.07566 0.151318,0.151318 0.226977,0.226977 1.033263,1.033261 3.055465,1.870888 4.516718,1.870888 l 10.583337,0 c 2.9225,0 5.97243,-2.269241 6.81221,-5.068493 0.68935,-2.29785 1.37871,-4.5957 2.06806,-6.89355 0.20995,-0.699813 0.38014,-1.859414 0.38014,-2.590041 v -3.96875 c 0,-0.730627 -0.17019,-1.890228 -0.38014,-2.590042 -0.68935,-2.297849 -1.37871,-4.595698 -2.06806,-6.893548 -0.83978,-2.799252 -3.88971,-5.068493 -6.81221,-5.068493 l -10.583337,0 c -1.461253,0 -3.483455,0.837627 -4.516718,1.870889 -0.07566,0.07566 -0.151318,0.151317 -0.226977,0.226976 -1.033262,1.033262 -3.055468,1.870885 -4.516721,1.870885 l -34.395834,0 c -1.461253,0 -3.483456,-0.837626 -4.516717,-1.870889 -0.07566,-0.07566 -0.151315,-0.151315 -0.226972,-0.226972 -1.033261,-1.033263 -3.055464,-1.870889 -4.516717,-1.870889 l -10.583339,0 a 7.1121617,7.1121617 143.34962 0 0 -6.812215,5.068497 z"
       sodipodi:nodetypes="ccccccccccccccccc"
       inkscape:original-d="m 30.427082,59.531252 c -1.322917,4.409723 -2.645833,8.819444 -3.96875,13.229166 0,2.204861 0,4.409723 0,6.614584 1.322917,4.409722 2.645833,8.819445 3.96875,13.229167 6.173608,0 12.347218,0 18.520838,0 1.32291,-1.322917 2.64583,-2.645832 3.96874,-3.96875 13.22917,0 26.45834,0 39.6875,0 1.32292,1.322918 2.64584,2.645833 3.96875,3.96875 6.17361,0 12.34722,0 18.52083,0 1.32292,-4.409722 2.64583,-8.819445 3.96875,-13.229167 0,-2.204861 0,-4.409723 0,-6.614584 -1.32292,-4.409722 -2.64583,-8.819443 -3.96875,-13.229166 -6.17361,0 -12.34722,0 -18.52083,0 -1.32291,1.322917 -2.64583,2.645833 -3.96875,3.96875 -13.22916,0 -26.45833,0 -39.6875,0 -1.32291,-1.322917 -2.64583,-2.645833 -3.96874,-3.96875 -6.17362,0 -12.34723,0 -18.520838,0 z"
       inkscape:path-effect="#path-effect3063-3-6" />
  </g>
</svg>
